{"title":"The Muppets 2011 TS XViD AC3-26K.","uid":6876175,"size":1376376787,"categoryP":"video","categoryS":"movies","magnet":"?xt=urn:btih:7b9ca76f1192993945ac15a10118bbcebfac4cb1&amp;dn=The+Muppets+2011+TS+XViD+AC3-26K.&amp;tr=udp%3A%2F%2Ftracker.openbittorrent.com%3A80&amp;tr=udp%3A%2F%2Fopen.demonii.com%3A1337&amp;tr=udp%3A%2F%2Ftracker.coppersurfer.tk%3A6969&amp;tr=udp%3A%2F%2Fexodus.desync.com%3A6969","seeders":1,"leechers":0,"uploader":"moviesp2p","files":3,"time":1323428910,"description":"\nThe Muppets 2011 TS XViD AC3-26K\n\nImdb: &lt;a href=&quot;\nhttp://www.imdb.com/title/tt1204342/&quot; rel=&quot;nofollow&quot; target=&quot;_NEW&quot;&gt;\nhttp://www.imdb.com/title/tt1204342/&lt;/a&gt;\n\nPlot:\nWith the help of three fans, The Muppets must reunite to save their old theater from a greedy oil \n\ntycoon.\n\nSources:\nSpanish !!\nthnxs for line TA!1\n\nNotes:\nnice line added few filters to video to make it look nice so enjoy \n\nGreetz:\nTo all the people who have helped me  you know who you are\n\nAnything to offer email us @: &lt;a class=&quot;__cf_email__&quot; href=&quot;/cdn-cgi/l/email-protection&quot; data-cfemail=&quot;497b7f2209213c3a212428202567242c&quot;&gt;[email&amp;#160;protected]&lt;/a&gt;&lt;script cf-hash='f9e31' type=&quot;text/javascript&quot;&gt;\n/* &lt;![CDATA[ */!function(){try{var t=&quot;currentScript&quot;in document?document.currentScript:function(){for(var t=document.getElementsByTagName(&quot;script&quot;),e=t.length;e--;)if(t[e].getAttribute(&quot;cf-hash&quot;))return t[e]}();if(t&amp;&amp;t.previousSibling){var e,r,n,i,c=t.previousSibling,a=c.getAttribute(&quot;data-cfemail&quot;);if(a){for(e=&quot;&quot;,r=parseInt(a.substr(0,2),16),n=2;a.length-n;n+=2)i=parseInt(a.substr(n,2),16)^r,e+=String.fromCharCode(i);e=document.createTextNode(e),c.parentNode.replaceChild(e,c)}}}catch(u){}}();/* ]]&gt; */&lt;/script&gt;\n\nVideo\nID                                       : 0\nFormat                                   : MPEG-4 Visual\nFormat profile                           : Advanced Simple@L5\nFormat settings, BVOP                    : 2\nFormat settings, QPel                    : No\nFormat settings, GMC                     : No warppoints\nFormat settings, Matrix                  : Default (H.263)\nCodec ID                                 : XVID\nCodec ID/Hint                            : XviD\nDuration                                 : 1h 37mn\nBit rate                                 : 1 670 Kbps\nWidth                                    : 640 pixels\nHeight                                   : 256 pixels\nDisplay aspect ratio                     : 2.500\nFrame rate                               : 29.970 fps\nColor space                              : YUV\nChroma subsampling                       : 4:2:0\nBit depth                                : 8 bits\nScan type                                : Progressive\nCompression mode                         : Lossy\nBits/(Pixel*Frame)                       : 0.340\nStream size                              : 1.14 GiB (91%)\nWriting library                          : XviD 63\n\nAudio\nID                                       : 1\nFormat                                   : AC-3\nFormat/Info                              : Audio Coding 3\nMode extension                           : CM (complete main)\nCodec ID                                 : 2000\nDuration                                 : 1h 37mn\nBit rate mode                            : Constant\nBit rate                                 : 160 Kbps\nChannel(s)                               : 2 channels\nChannel positions                        : Front: L R\nSampling rate                            : 44.1 KHz\nBit depth                                : 16 bits\nCompression mode                         : Lossy\nStream size                              : 111 MiB (9%)\nAlignment                                : Aligned on interleaves\nInterleave, duration                     : 35 ms (1.04 video frame)","torrent":{"xt":"urn:btih:7b9ca76f1192993945ac15a10118bbcebfac4cb1","amp;dn":"The+Muppets+2011+TS+XViD+AC3-26K.","amp;tr":["udp%3A%2F%2Ftracker.openbittorrent.com%3A80","udp%3A%2F%2Fopen.demonii.com%3A1337","udp%3A%2F%2Ftracker.coppersurfer.tk%3A6969","udp%3A%2F%2Fexodus.desync.com%3A6969"],"infoHash":"7b9ca76f1192993945ac15a10118bbcebfac4cb1","infoHashBuffer":{"type":"Buffer","data":[123,156,167,111,17,146,153,57,69,172,21,161,1,24,187,206,191,172,76,177]},"announce":[],"urlList":[]}}